<mxfile host="app.diagrams.net" modified="2024-06-24T07:07:20.612Z" agent="Mozilla/5.0 (Windows NT 10.0; Win64; x64) AppleWebKit/537.36 (KHTML, like Gecko) Chrome/126.0.0.0 Safari/537.36" version="24.6.2" etag="yKh1tXUWreotDBZgBMuF" type="github">
  <diagram name="ページ1" id="UmNnwg5cV3t2a4azZQMD">
    <mxGraphModel>
      <root>
        <mxCell id="0" />
        <mxCell id="1" parent="0" />
      </root>
    </mxGraphModel>
  </diagram>
</mxfile>
